<?xml version="1.0" encoding="UTF-8"?>
<svg id="Layer_2" data-name="Layer 2" xmlns="http://www.w3.org/2000/svg" viewBox="0 0 245.8 242.77">
  <defs>
    <style>
      .cls-1 {
        fill: #231f20;
      }

      .cls-2 {
        fill: #fff;
      }
    
      #record {
        transform-origin: center;
        transform-box: fill-box;
        animation: spin 3.5s linear infinite;
      }
      @keyframes spin {
        to { transform: rotate(360deg); }
      }
</style>
  </defs>
  <g id="Layer_2-2" data-name="Layer 2">
    <g>
      <path class="cls-1" d="M18.04,151.35c-5.67,5.18-11.44,10.26-17.31,15.22-1.21,1.03-.83,3.21.51,3.93,23.14,12.44,46.28,24.87,69.41,37.31,2.86,1.54,5.7,3.35,8.74,4.53,3.19,1.24,5.96.25,8.62-1.63,4.94-3.48,10.07-6.65,15.35-9.59,10.93-6.09,22.32-11.36,33.58-16.83,13.29-6.45,26.58-12.9,39.87-19.36,1.21-.59,1.54-2.32.9-3.42-.73-1.24-2.2-1.49-3.42-.9-11.65,5.65-23.29,11.31-34.94,16.96s-22.28,10.6-33.19,16.35c-5.34,2.81-10.6,5.79-15.67,9.08-1.17.76-2.33,1.53-3.47,2.32s-2.34,1.88-3.67,2.43c-.97.4-1.92.07-2.83-.34-1.53-.7-2.99-1.58-4.47-2.38-11.35-6.1-22.7-12.2-34.05-18.3-12.74-6.85-25.48-13.7-38.22-20.55l.51,3.93c5.87-4.96,11.64-10.03,17.31-15.22,2.38-2.18-1.16-5.7-3.54-3.54h0Z"/>
      <g>
        <path class="cls-1" d="M81.02,112.72c12.02-26.28,23.48-52.82,34.39-79.58,3.07-7.55,6.1-15.11,9.09-22.69.49-1.26-.54-2.74-1.75-3.08-1.42-.39-2.58.48-3.08,1.75-10.46,26.57-21.47,52.91-33.03,79.02-3.27,7.38-6.58,14.73-9.94,22.07-.56,1.23-.35,2.69.9,3.42,1.08.63,2.86.34,3.42-.9h0Z"/>
        <path class="cls-1" d="M121.69,11.17c26.35,12.68,52.7,25.36,79.05,38.04l22.46,10.81c1.22.59,2.7.33,3.42-.9.64-1.09.32-2.83-.9-3.42-26.35-12.68-52.7-25.36-79.05-38.04l-22.46-10.81c-1.22-.59-2.7-.33-3.42.9-.64,1.09-.32,2.83.9,3.42h0Z"/>
        <path class="cls-1" d="M223.31,61.06c-9.92,26.07-20.45,51.9-31.6,77.47-3.05,7-6.15,13.98-9.29,20.94-.56,1.23-.35,2.69.9,3.42,1.07.63,2.86.34,3.42-.9,11.48-25.44,22.38-51.14,32.66-77.08,2.97-7.49,5.88-14.99,8.74-22.52.48-1.26-.53-2.74-1.75-3.08-1.41-.39-2.59.48-3.08,1.75h0Z"/>
        <path class="cls-1" d="M77.54,115.87c27.7,8.66,52.93,23.27,78.77,36.17,7.4,3.69,14.87,7.25,22.47,10.52,1.24.53,2.68.37,3.42-.9.62-1.05.35-2.89-.9-3.42-26.97-11.57-52.12-26.92-79.1-38.46-7.64-3.27-15.41-6.25-23.34-8.73-3.08-.96-4.4,3.86-1.33,4.82h0Z"/>
        <path class="cls-1" d="M185.43,150.53c-23.31-11.01-46.63-22.01-69.94-33.02-6.62-3.12-13.24-6.25-19.85-9.37l1.15,2.82c9.29-24.35,18.58-48.71,27.87-73.06,2.6-6.83,5.21-13.65,7.81-20.48.48-1.26-.53-2.74-1.75-3.08-1.41-.39-2.59.48-3.08,1.75-9.29,24.35-18.58,48.71-27.87,73.06-2.6,6.83-5.21,13.65-7.81,20.48-.36.95.23,2.39,1.15,2.82,23.31,11.01,46.63,22.01,69.94,33.02l19.85,9.37c1.22.58,2.7.34,3.42-.9.64-1.09.33-2.84-.9-3.42h0Z"/>
        <path class="cls-1" d="M124.08,10.12c4.64-1.01,9.12-2.87,13.1-5.45,1.1-.71,1.65-2.25.9-3.42-.71-1.1-2.25-1.66-3.42-.9-.92.6-1.87,1.16-2.84,1.67-.52.27-1.04.54-1.57.79-.26.13-.53.25-.8.37-.13.06-.27.12-.4.18.23-.09.26-.11.09-.04-2.08.83-4.2,1.51-6.39,1.98-1.28.28-2.15,1.84-1.75,3.08.44,1.35,1.7,2.04,3.08,1.75h0Z"/>
        <path class="cls-1" d="M134.83,5.35c14.29,6.78,28.59,13.56,42.88,20.34s27.68,12.91,41.28,19.83c7.51,3.82,14.91,7.86,22.08,12.29l1.26-4.66c-6.59.65-13.14,1.7-19.6,3.18-3.14.72-1.81,5.54,1.33,4.82,6.02-1.38,12.12-2.39,18.27-3,2.39-.23,3.5-3.27,1.26-4.66-12.86-7.95-26.45-14.6-40.09-21.08-14.07-6.69-28.15-13.35-42.23-20.03-7.97-3.78-15.95-7.56-23.92-11.35-1.22-.58-2.7-.34-3.42.9-.64,1.09-.33,2.84.9,3.42h0Z"/>
        <path class="cls-1" d="M240.85,58.09c-12.06,30.53-24.12,61.05-36.19,91.58l-2.39,6.04c-.26.67-.55,1.86-1.12,2.37-.4.36-.93.35-1.44.39-4.59.34-9.23.33-13.83.49-3.21.11-3.22,5.11,0,5,4.23-.15,8.47-.3,12.7-.45,1.95-.07,3.89-.14,5.49-1.39,1.5-1.17,2.15-2.91,2.83-4.62,3.13-7.9,6.25-15.81,9.37-23.71,6.28-15.88,12.55-31.77,18.83-47.65,3.52-8.91,7.04-17.82,10.56-26.73.5-1.26-.54-2.74-1.75-3.08-1.42-.39-2.58.49-3.08,1.75h0Z"/>
      </g>
      <g id="record">
<g>
        <path class="cls-2" d="M119.06,141.44c-8.34-20.31-34.83-28.61-54.21-27.98-16.01.53-33.12,7.35-40.85,18.4-4.95,7.08-6.09,14.58-6.09,14.58s-.97,6.39.62,12.81c4.8,19.38,33.25,28.69,36.19,29.65,6.77,2.21,22.46,7.32,39.64.39,3.45-1.39,22.14-8.93,26.32-26.1,2.53-10.37-.58-19.2-1.63-21.76Z"/>
        <path class="cls-1" d="M121.47,140.77c-8.38-20.14-31.85-29.13-52.32-29.81-12.04-.4-24.59,2.43-34.99,8.6-5.06,3-9.6,6.9-12.85,11.83-2.77,4.21-4.89,9.18-5.77,14.16-.83,4.68-.56,9.78.58,14.37s3.68,8.91,6.81,12.55c5.73,6.67,13.6,11.47,21.53,15.07,5.22,2.37,10.67,4.33,16.23,5.74,11.7,2.96,23.97,2.73,35.2-1.93,6.99-2.9,13.66-6.95,18.85-12.52,3.63-3.9,6.48-8.52,8-13.64,1.87-6.32,1.81-13.18.27-19.55-.4-1.65-.9-3.29-1.55-4.86-.51-1.25-1.66-2.13-3.08-1.75-1.18.33-2.26,1.82-1.75,3.08,3.73,9.16,3.48,20.12-1.86,28.58-4.25,6.73-10.83,11.41-17.96,14.82-.55.26-1.1.52-1.66.76-.21.09-.43.18-.64.28-.45.2.58-.23.14-.06-.13.05-.27.11-.4.17-2.47,1.01-5,1.85-7.6,2.46-5.84,1.37-11.97,1.53-17.9.7s-12.16-2.69-17.92-4.95c-.64-.25-1.28-.51-1.92-.78.54.23-.4-.17-.55-.24-.4-.17-.8-.35-1.2-.53-1.7-.77-3.37-1.58-5.01-2.46-3.63-1.93-7.33-4.25-10.36-6.74-3.31-2.72-6.19-5.72-8.3-9.3-2.59-4.39-3.53-9.46-3.39-14.74.03-.98.09-1.95.19-2.93.02-.14.04-.29.05-.43.03-.42-.2.56-.05.39.03-.03.02-.16.03-.2.35-1.61.73-3.19,1.26-4.76,1.78-5.29,4.72-10.08,8.88-13.82,8.35-7.5,20.2-11.29,31.22-12.21,9.72-.81,19.46.6,28.65,3.84s17.57,8.36,23,16.21c1.28,1.85,2.42,3.83,3.29,5.91.52,1.25,1.66,2.14,3.08,1.75,1.18-.32,2.27-1.82,1.75-3.08Z"/>
      </g>
      <path class="cls-1" d="M51.88,135.16c-4.49,5.63-5.62,13.75-1.63,19.97s12.81,10.22,20.38,8.17c6.46-1.75,11.12-7.91,12.75-14.2,1.15-4.42.44-9.23-2.34-12.92-1.94-2.58-4.57-4.52-7.53-5.8-7.36-3.18-16.43-1.54-21.64,4.78-.86,1.04-1.02,2.52,0,3.54.89.89,2.67,1.05,3.54,0,3.54-4.29,9.45-6.04,14.75-4.28.36.12.72.26,1.07.39.42.16.02,0-.06-.03.13.06.26.11.38.17.27.13.54.26.8.39,1.08.56,2.1,1.21,2.84,1.85,2.38,2.06,3.81,4.82,3.72,8.09-.07,2.59-.95,4.61-2.1,6.69s-2.65,4.03-4.9,5.38c-5.1,3.07-11.93,1.22-15.97-2.99-2.4-2.51-3.64-5.98-3.11-9.45.25-1.65.78-3.09,1.49-4.44.26-.49.55-.98.86-1.44.12-.18.25-.34.36-.52.28-.43-.13.16-.15.19.84-1.05,1.03-2.51,0-3.54-.87-.87-2.69-1.06-3.54,0Z"/>
      <path class="cls-1" d="M63.02,143.93c-1.86,1.79-2.78,4.83-1.78,7.29.55,1.34,1.44,2.48,2.73,3.18s2.72.92,4.17.66c2.83-.52,4.46-3.37,4.81-6s-.43-5.67-2.88-7.05c-2.71-1.53-6.46-.43-7.43,2.65-.39,1.25.46,2.78,1.75,3.08,1.36.31,2.65-.41,3.08-1.75.02-.06.04-.12.06-.17l-.25.6c.07-.16.15-.31.26-.46l-.39.51c.11-.14.23-.25.37-.36l-.51.39c.17-.12.34-.22.53-.3l-.6.25c.23-.09.46-.15.7-.19l-.66.09c.28-.03.55-.03.83,0l-.66-.09c.25.04.48.1.72.19l-.6-.25c.2.09.38.19.56.32l-.51-.39c.24.18.44.39.62.63l-.39-.51c.18.25.33.5.45.78l-.25-.6c.18.43.29.87.36,1.34l-.09-.66c.06.55.06,1.09-.01,1.64l.09-.66c-.08.55-.22,1.08-.43,1.6l.25-.6c-.17.4-.38.77-.65,1.12l.39-.51c-.2.24-.41.45-.66.65l.51-.39c-.22.16-.44.29-.69.39l.6-.25c-.23.09-.46.15-.71.19l.66-.09c-.28.03-.55.03-.83,0l.66.09c-.35-.05-.69-.14-1.02-.28l.6.25c-.29-.13-.57-.3-.82-.49l.51.39c-.22-.18-.42-.38-.6-.6l.39.51c-.18-.23-.32-.47-.44-.73l.25.6c-.13-.32-.22-.65-.28-.99l.09.66c-.05-.38-.04-.76,0-1.14l-.09.66c.06-.38.16-.75.3-1.11l-.25.6c.17-.4.38-.76.64-1.1l-.39.51c.15-.18.3-.35.47-.51.94-.91.98-2.63,0-3.54s-2.53-.97-3.54,0h0Z"/>
</g>
      <g>
        <path class="cls-2" d="M87.72,148.24c-.11,5.08.58,10.18,2.03,15.05.11.36.23.73.52.97.36.3.88.3,1.35.29,5.24-.16,10.48-.39,15.71-.68.19-4.89.14-9.79-.16-14.67-.02-.39-.07-.81-.36-1.07-.24-.21-.59-.23-.92-.25-5.9-.25-11.81-.13-17.69.36"/>
        <path class="cls-1" d="M85.22,148.24c-.05,3.08.18,6.14.65,9.19.23,1.47.52,2.93.88,4.37.38,1.54.7,3.38,2,4.42s3.02.82,4.59.77,3.07-.11,4.6-.17c3.13-.13,6.26-.28,9.39-.46,1.39-.08,2.45-1.08,2.5-2.5.12-3.15.14-6.31.06-9.46-.04-1.61-.1-3.22-.2-4.82-.11-1.78-.69-3.59-2.65-4.06-1.45-.35-3.13-.22-4.61-.24s-3.08-.03-4.62,0c-3.21.05-6.41.21-9.61.47-1.35.11-2.5,1.07-2.5,2.5,0,1.27,1.15,2.61,2.5,2.5,3.07-.25,6.15-.41,9.22-.46,1.54-.03,3.08-.03,4.62,0,.71.01,1.41.03,2.12.05.38.01.77.02,1.15.04.19,0,.38.01.58.02-.24-.04-.47-.13-.68-.27l-.64-1.1c.28.71.21,2.26.25,3.27.05,1.29.08,2.57.1,3.86.03,2.58,0,5.15-.1,7.73l2.5-2.5c-2.68.15-5.36.29-8.04.4-1.41.06-2.81.12-4.22.17-.46.02-3.64-.03-3.69.13.2.06.36.2.46.42.4.52.51.56.32.13.01-.26-.19-.64-.26-.89-.18-.66-.35-1.32-.51-1.98-.3-1.27-.54-2.55-.73-3.83-.38-2.53-.49-5.12-.45-7.68.06-3.22-4.94-3.22-5,0h0Z"/>
      </g>
      <g>
        <path class="cls-2" d="M109.11,150.19c14.87.41,29.74.82,44.61,1.22.32,0,.67.03.88.27.2.22.21.55.2.85-.04,2.22-.09,4.44-.13,6.66-14.09.18-28.17.35-42.26.53-1.12.01-2.45-.08-3.02-1.05-.29-.49-.3-1.1-.3-1.67,0-2.07.01-4.14.02-6.21"/>
        <path class="cls-1" d="M109.11,152.69l22.55.62,11.15.31,5.45.15,2.97.08,1.49.04h.5c.62.06.66.04.12-.05l-.9-.9c-.14-.57-.19-.55-.15.06,0,.32-.01.63-.02.95-.01.56-.02,1.11-.03,1.67-.02,1.19-.05,2.38-.07,3.57l2.5-2.5c-8.87.11-17.73.22-26.6.33-4.39.05-8.78.11-13.18.16-.98.01-2.22-.18-3.18.02-.7.14-.18-.13-.13.14-.18-.97,0-2.22,0-3.21,0-1.11,0-2.23.01-3.34.01-3.22-4.99-3.22-5,0,0,2.28-.19,4.63,0,6.9.2,2.4,1.73,4.03,4.1,4.4s4.82.09,7.17.06l7.21-.09c9.86-.12,19.72-.25,29.58-.37,1.37-.02,2.47-1.13,2.5-2.5.05-2.29.28-4.68.13-6.96-.08-1.19-.59-2.28-1.69-2.87-1.01-.55-2.27-.45-3.38-.48l-14.37-.39c-9.58-.26-19.17-.53-28.75-.79-3.22-.09-3.22,4.91,0,5h0Z"/>
      </g>
      <path class="cls-1" d="M92.95,166.15v5.97c0,.64.28,1.31.73,1.77s1.15.76,1.77.73c1.35-.06,2.5-1.1,2.5-2.5v-5.97c0-.64-.28-1.31-.73-1.77s-1.15-.76-1.77-.73c-1.35.06-2.5,1.1-2.5,2.5h0Z"/>
      <path class="cls-1" d="M1.37,171.86c-.46,8.48-.84,16.96-1.16,25.45-.03.85.49,1.75,1.24,2.16,20.84,11.52,42.13,22.18,63.07,33.51,5.36,2.9,10.7,5.84,16.02,8.83,1.73.97,3.65-.28,3.76-2.16.64-10.31,1.28-20.63,1.92-30.94.2-3.21-4.8-3.2-5,0-.64,10.31-1.28,20.63-1.92,30.94l3.76-2.16c-19.75-11.08-39.96-21.25-59.93-31.92-6.41-3.43-12.8-6.9-19.16-10.42l1.24,2.16c.32-8.48.71-16.97,1.16-25.45.17-3.22-4.83-3.21-5,0h0Z"/>
      <path class="cls-1" d="M84.68,242.41c13.36-9.47,27.46-17.58,42.12-24.84,7.67-3.8,15.34-7.6,23.01-11.41,8.89-4.42,18.6-8.89,25.6-16.13,1.65-1.71,3.2-3.65,4.21-5.82s1.39-4.24,1.64-6.56c.66-6.06.39-12.15-.66-18.16-.23-1.33-1.86-2.08-3.08-1.75-1.41.39-1.98,1.74-1.75,3.08.87,5.02,1.05,10.14.63,15.22-.17,1.99-.21,3.39-.97,5.33-.52,1.32-1.7,3.06-2.79,4.28-3.06,3.44-6.91,6.06-10.82,8.43-4.29,2.6-8.77,4.88-13.26,7.12-11.92,5.94-24.02,11.61-35.77,17.9-10.6,5.67-20.82,12.05-30.63,19-1.1.78-1.62,2.18-.9,3.42.64,1.09,2.31,1.68,3.42.9h0Z"/>
      <path class="cls-1" d="M25.16,199.3c-.67,2.53.22,5.43,2.27,7.1,1.29,1.05,2.71,1.52,4.37,1.64.59.04,1.2.05,1.79-.02,1.08-.12,1.98-.46,2.82-1.17,1.81-1.54,2.16-4.42,1.95-6.65-.15-1.55-.55-2.95-1.58-4.15s-2.72-1.74-4.31-1.82c-1.79-.09-3.7.09-4.99,1.47-1.07,1.14-1.99,2.52-2.83,3.85-.7,1.11-.27,2.81.9,3.42,1.24.65,2.67.28,3.42-.9.27-.42.55-.84.83-1.25.16-.23.32-.46.49-.68.07-.09.13-.18.2-.27.35-.47-.35.43.02-.02.15-.19.29-.37.45-.55.03-.04.27-.24.27-.27,0,.05-.52.34-.14.13-.49.26-.37.16-.18.1.41-.12-.19,0-.23.02.23-.07.58-.04.82-.04.22,0,.45-.01.67,0,.13,0,.87.07.41,0s.26.07.38.1c.38.09-.15-.05-.19-.1.07.08.27.15.38.21.44.24-.35-.33-.15-.11.04.05.21.16.21.22,0,.02-.38-.56-.17-.22.04.07.09.14.13.21.04.08.21.46.03.03s-.02-.03,0,.05c.07.2.12.41.16.61.02.08.02.17.04.25-.17-.67-.06-.44-.04-.21.02.19.03.39.03.59.01.42,0,.84-.03,1.25,0,.07-.04.18-.02.24,0-.01.11-.69.04-.3-.03.18-.07.36-.11.54s-.1.35-.16.52c-.12.38.11-.29.12-.27.02.05-.13.25-.16.3-.32.54.38-.44-.02.02-.15.17-.26.04.25-.18-.05.02-.14.08-.19.12-.35.24.55-.15.21-.09l-.07.02c-.27.06-.2.05.2,0-.15-.08-.61.03-.8.02-.25,0-.51,0-.76-.02-.04,0-.42-.03-.42-.04,0-.03.65.13.17.01-.22-.05-.44-.11-.66-.18-.3-.09.6.31.21.08-.11-.06-.21-.11-.32-.18-.07-.04-.13-.09-.2-.13-.39-.24.46.4.13.09-.15-.14-.29-.29-.43-.43-.27-.28.16.22.16.22-.08-.07-.15-.21-.21-.3-.05-.09-.1-.17-.15-.26s-.24-.52-.06-.09.02.04,0-.04c-.04-.12-.07-.23-.1-.35-.02-.08-.04-.16-.05-.24-.11-.45.04.65.02.18,0-.2-.02-.4-.01-.6,0-.1.06-.51,0-.03s.03-.04.05-.14c.33-1.26-.42-2.77-1.75-3.08s-2.72.39-3.08,1.75h0Z"/>
      <path class="cls-1" d="M42.49,204.9c-.62,2.24-.33,4.68.8,6.72s3.71,3.86,6.22,3.14,3.62-3.47,3.72-5.92c.05-1.35-.41-2.63-1.07-3.79-.57-1-1.31-1.88-2.27-2.53-1.12-.75-2.62-1-3.9-.54-1.66.59-2.79,1.92-2.87,3.72-.06,1.31,1.2,2.56,2.5,2.5,1.41-.06,2.43-1.1,2.5-2.5,0-.06,0-.13.02-.19l-.09.66c.02-.09.04-.17.08-.26l-.25.6c.05-.11.11-.21.18-.31l-.39.51c.08-.1.17-.18.26-.26l-.51.39c.13-.1.26-.18.41-.24l-.6.25c.18-.08.37-.13.56-.16l-.66.09c.16-.02.32-.02.49,0l-.66-.09c.18.03.34.07.51.14l-.6-.25c.22.09.41.21.6.35l-.51-.39c.28.22.53.48.75.76l-.39-.51c.39.51.71,1.08.96,1.67l-.25-.6c.12.31.22.62.27.95l-.09-.66c.05.43.03.86-.02,1.29l.09-.66c-.08.52-.19,1.03-.39,1.51l.25-.6c-.11.24-.23.46-.38.68l.39-.51c-.14.17-.28.32-.46.46l.51-.39c-.12.09-.25.16-.39.22l.6-.25c-.14.05-.28.09-.42.12l.66-.09c-.18.02-.36.03-.54.01l.66.09c-.26-.04-.5-.11-.75-.21l.6.25c-.25-.12-.48-.25-.7-.42l.51.39c-.28-.22-.53-.47-.76-.75l.39.51c-.31-.4-.54-.84-.74-1.31l.25.6c-.21-.52-.35-1.06-.43-1.61l.09.66c-.07-.56-.07-1.11,0-1.67l-.09.66c.04-.3.1-.59.18-.88.35-1.26-.43-2.78-1.75-3.08s-2.7.4-3.08,1.75h0Z"/>
      <path class="cls-1" d="M58.7,213.04c.13,1.4-.19,2.76.19,4.15.42,1.54,1.52,2.72,2.84,3.55,1.12.71,2.46,1.24,3.76,1.47,1.38.25,2.94.37,4.28-.14.91-.35,1.7-.87,2.22-1.72.47-.77.56-1.62.59-2.5.05-1.29.04-2.67-.38-3.91-.97-2.83-3.51-4.53-6.44-4.71-1.47-.09-2.98.36-4.26,1.05-1.37.74-2.42,1.83-3.35,3.06-.37.48-.4,1.38-.25,1.93.16.58.61,1.21,1.15,1.49.58.31,1.28.46,1.93.25s1.08-.6,1.49-1.15c-.45.59-.04.06.08-.07.13-.15.27-.29.42-.43.1-.09.41-.28.45-.4-.06.18-.41.3-.15.12.12-.09.24-.17.37-.25.17-.11.34-.2.52-.3.08-.04.2-.08.27-.13-.04.03-.58.21-.19.08.19-.06.37-.13.56-.18.1-.03.19-.05.29-.07s.54-.12.1-.02.18,0,.29,0c.1,0,.77.07.29,0s.23.06.35.09c.11.03.77.26.35.11s.16.1.25.15c.08.05.15.1.23.15.27.16-.41-.35-.18-.15.14.12.27.24.4.37.07.08.26.33.02,0-.25-.35,0,0,.04.08s.09.16.14.24c.22.36-.05-.07-.05-.15,0,.19.14.43.19.62.02.11.04.21.07.32.09.43-.03-.12-.02-.18-.04.25.04.57.05.82,0,.44,0,.88-.03,1.32,0,.09-.03.23-.02.31-.01-.07.13-.6,0-.21.08-.26.19-.45.38-.65-.28.29.43-.27.17-.11-.46.29.54-.15,0,0-.08.02-.17.04-.26.06-.3.08.59-.05.28-.03-.23.01-.45.03-.68.03-.16,0-.67.05-.79-.05.14.11.47.08.14.01-.12-.02-.23-.04-.35-.07-.23-.05-.46-.11-.69-.18-.11-.04-.23-.07-.34-.11-.04-.01-.59-.2-.2-.07.34.12-.02-.01-.11-.05-.13-.06-.25-.12-.37-.18-.22-.12-.44-.24-.65-.38-.08-.05-.16-.13-.25-.17.18.1.39.32.1.05-.07-.07-.14-.15-.21-.21-.22-.2.29.47.07.1-.05-.08-.1-.17-.15-.25-.09-.18-.09-.18,0,.02.08.2.09.2.02-.02-.01-.08-.04-.28-.07-.34.11.19.05.49.04.06,0-.26,0-.53.01-.79.03-.59.07-1.17.01-1.76-.06-.68-.24-1.27-.73-1.77-.43-.43-1.15-.76-1.77-.73-1.25.06-2.63,1.11-2.5,2.5h0Z"/>
    </g>
  </g>
</svg>